<?xml version="1.0" encoding="UTF-8"?>
<svg width="126px" height="100px" viewBox="0 0 126 100" version="1.1" xmlns="http://www.w3.org/2000/svg" xmlns:xlink="http://www.w3.org/1999/xlink">
    <!-- Generator: Sketch 43.1 (39012) - http://www.bohemiancoding.com/sketch -->
    <title>speaker-mute</title>
    <desc>Created with Sketch.</desc>
    <defs></defs>
    <g id="Page-1" stroke="none" stroke-width="1" fill="none" fill-rule="evenodd">
        <g id="back.svg-fi-play.svg-next.svg-pause-button.svg-speaker.svg-speedometer.svg-switch-to-full-screen-button.svg" transform="translate(-1677.000000, -885.000000)" fill-rule="nonzero">
            <g id="speaker-mute" transform="translate(1677.000000, 885.000000)">
                <path d="M56.0291667,2.82916667 C54.88125,2.82916667 53.74375,3.14791667 52.7395833,3.75416667 C52.64375,3.81041667 52.5520833,3.87708333 52.46875,3.94791667 L24.2375,27.8291667 L2.08333333,27.8291667 C0.93125,27.8291667 0,28.7604167 0,29.9125 L0,69.4958333 C0,70.05 0.21875,70.5791667 0.610416667,70.96875 C1.00208333,71.3583333 1.52916667,71.5791667 2.08333333,71.5791667 L24.1875,71.56875 L52.4020833,97.4854167 C52.50625,97.58125 52.61875,97.6645833 52.7375,97.7354167 C53.7416667,98.3416667 54.8791667,98.6604167 56.0270833,98.6604167 C59.5958333,98.6604167 62.4979167,95.7104167 62.4979167,92.0854167 L62.4979167,9.40416667 C62.5,5.77916667 59.5958333,2.82916667 56.0291667,2.82916667 Z M27.0833333,67.4125 C27.0833333,68.5645833 26.1520833,69.4958333 25,69.4958333 C23.8479167,69.4958333 22.9166667,68.5645833 22.9166667,67.4125 L22.9166667,59.0791667 C22.9166667,57.9270833 23.8479167,56.9958333 25,56.9958333 C26.1520833,56.9958333 27.0833333,57.9270833 27.0833333,59.0791667 L27.0833333,67.4125 Z M27.0833333,40.3291667 C27.0833333,41.48125 26.1520833,42.4125 25,42.4125 C23.8479167,42.4125 22.9166667,41.48125 22.9166667,40.3291667 L22.9166667,31.9958333 C22.9166667,30.84375 23.8479167,29.9125 25,29.9125 C26.1520833,29.9125 27.0833333,30.84375 27.0833333,31.9958333 L27.0833333,40.3291667 Z" id="Shape" fill="#FFFFFF"></path>
                <path d="M108.3875,49.7041667 C108.3875,32.3145833 97.3125,16.8708333 80.8270833,11.2729167 C79.7395833,10.9041667 78.5541667,11.4875 78.1833333,12.5770833 C77.8145833,13.6645833 78.3979167,14.85 79.4875,15.2208333 C94.28125,20.24375 104.220833,34.1020833 104.220833,49.70625 C104.220833,65.2958333 94.3,79.15625 79.5354167,84.19375 C78.4479167,84.5645833 77.8645833,85.7479167 78.2375,86.8395833 C78.5333333,87.7041667 79.3416667,88.25 80.2083333,88.25 C80.43125,88.25 80.6583333,88.2145833 80.88125,88.1375 C97.3354167,82.5229167 108.3875,67.0791667 108.3875,49.7041667 Z" id="Shape" stroke="#FFFFFF" opacity="0.192425272"></path>
                <path d="M92.6104167,0.779166667 C91.5520833,0.335416667 90.3291667,0.822916667 89.8770833,1.88333333 C89.4291667,2.94375 89.9229167,4.16666667 90.9833333,4.61666667 C109.116667,12.3104167 120.833333,30.0104167 120.833333,49.7041667 C120.833333,70.0729167 108.554167,87.9958333 89.5520833,95.3583333 C88.4791667,95.775 87.9458333,96.98125 88.3625,98.0541667 C88.68125,98.8791667 89.4708333,99.3854167 90.30625,99.3854167 C90.55625,99.3854167 90.8104167,99.3416667 91.0583333,99.2458333 C111.677083,91.2520833 125,71.80625 125,49.7041667 C125,28.3333333 112.285417,9.12916667 92.6104167,0.779166667 Z" id="Shape" stroke="#FFFFFF" opacity="0.192425272"></path>
                <path d="M89.6375,49.7041667 C89.6375,37.2625 81.2854167,26.1583333 69.3270833,22.7 C68.2229167,22.3854167 67.06875,23.0166667 66.7479167,24.125 C66.4291667,25.2291667 67.0645833,26.3854167 68.1729167,26.7041667 C78.3583333,29.6479167 85.4729167,39.10625 85.4729167,49.7041667 C85.4729167,60.3020833 78.3583333,69.7604167 68.1729167,72.7041667 C67.0666667,73.0229167 66.4291667,74.1791667 66.7479167,75.2833333 C67.0125,76.1958333 67.84375,76.7895833 68.75,76.7895833 C68.9416667,76.7895833 69.1354167,76.7625 69.3270833,76.7083333 C81.2875,73.2479167 89.6375,62.14375 89.6375,49.7041667 Z" id="Shape" stroke="#FFFFFF" opacity="0.192425272"></path>
            </g>
        </g>
    </g>
</svg>