<?xml version="1.0" encoding="UTF-8"?>
<svg width="152px" height="100px" viewBox="0 0 152 100" version="1.1" xmlns="http://www.w3.org/2000/svg" xmlns:xlink="http://www.w3.org/1999/xlink">
    <!-- Generator: Sketch 43.1 (39012) - http://www.bohemiancoding.com/sketch -->
    <title>speedometer</title>
    <desc>Created with Sketch.</desc>
    <defs></defs>
    <g id="Page-1" stroke="none" stroke-width="1" fill="none" fill-rule="evenodd">
        <g id="back.svg-fi-play.svg-next.svg-pause-button.svg-speaker.svg-speedometer.svg-switch-to-full-screen-button.svg" transform="translate(-2845.000000, -715.000000)" fill-rule="nonzero" fill="#000000">
            <g id="speedometer" transform="translate(2845.000000, 715.000000)">
                <path d="M151.736262,92.5410543 C151.72476,92.2113419 151.713099,91.8798722 151.701597,91.5472843 C151.689617,91.2146965 151.677316,90.8811502 151.665016,90.5460064 L151.655431,90.2952077 L151.650639,90.1694888 L151.649361,90.1380192 L151.646166,89.856869 L151.645208,89.84377 L151.641214,89.7916933 L151.609105,89.3752396 C151.565815,88.8194888 151.522524,88.2613419 151.479233,87.7031949 L151.446166,87.2806709 L151.396326,86.7327476 C151.361821,86.3683706 151.327476,86.0041534 151.293131,85.6407348 C151.257508,85.2779553 151.221725,84.915655 151.186262,84.5546326 C151.167891,84.3742812 151.149681,84.1942492 151.13147,84.0145367 C151.109425,83.8482428 151.08738,83.6822684 151.065335,83.5162939 C150.883387,82.1996805 150.720927,80.9057508 150.488978,79.6618211 C150.379393,79.0394569 150.278275,78.427476 150.164537,77.8309904 C150.040415,77.2359425 149.91901,76.6541534 149.800799,76.0875399 C149.576837,74.9536741 149.295527,73.8947284 149.058466,72.9158147 C148.997764,72.6715655 148.938339,72.4319489 148.880351,72.1982428 C148.815815,71.9654952 148.752556,71.7386581 148.691054,71.5170927 C148.566134,71.0752396 148.447764,70.6559105 148.336262,70.2623003 C148.222843,69.8691693 148.122843,69.5001597 148.018371,69.1618211 C147.910703,68.8246006 147.811981,68.5146965 147.722684,68.2348243 C147.590256,67.8236422 147.478594,67.4773163 147.390575,67.2036741 C147.260383,66.7996805 146.833546,66.572524 146.42524,66.6888179 L120.768211,74.0004792 C120.377316,74.1118211 120.134984,74.501278 120.209425,74.9009585 C120.23722,75.0501597 120.26901,75.2210863 120.304473,75.4123003 C120.341054,75.6047923 120.381629,75.8182109 120.425719,76.0503195 C120.467412,76.2830671 120.50016,76.5380192 120.542173,76.807508 C120.583387,77.0773163 120.627157,77.3646965 120.673323,77.6674121 C120.695847,77.8186901 120.722524,77.9728435 120.74345,78.1322684 C120.761661,78.2920128 120.780192,78.4557508 120.799361,78.6226837 C120.870767,79.2910543 120.977476,80.0076677 121.02508,80.7760383 C121.05655,81.1583067 121.089137,81.5511182 121.122364,81.9519169 C121.147284,82.3541534 121.159744,82.7662939 121.18115,83.1833866 C121.236741,84.0161342 121.226198,84.8832268 121.242173,85.7576677 L121.245847,86.0833866 L121.234345,86.3717252 C121.227796,86.5638978 121.221086,86.7563898 121.214537,86.9495208 C121.209425,87.1416933 121.204153,87.3345048 121.198882,87.5276358 L121.192812,87.8162939 L121.17524,88.2319489 C121.151597,88.7913738 121.127476,89.3504792 121.103674,89.9076677 L121.085942,90.3250799 L121.083546,90.3771565 L121.083067,90.3899361 C121.083387,90.4527157 121.078275,89.8929712 121.079872,90.1346645 L121.077796,90.1552716 L121.070128,90.2376997 L121.054952,90.4023962 C121.035144,90.6217252 121.015335,90.8397764 120.995687,91.0576677 C120.976677,91.2747604 120.957668,91.4913738 120.938978,91.7065495 C120.913419,91.9209265 120.888019,92.134345 120.86246,92.3461661 C120.807987,92.7694888 120.774441,93.1888179 120.707029,93.5972843 C120.647923,94.0060703 120.589776,94.407508 120.532907,94.8009585 C120.464856,95.1915335 120.398403,95.5738019 120.333866,95.9456869 C120.275399,96.3178914 120.197125,96.6763578 120.127476,97.0233227 C120.054633,97.3696486 119.996645,97.7059105 119.921086,98.0250799 C119.847444,98.3442492 119.776837,98.6496805 119.709585,98.9404153 C119.676358,99.0838658 119.644089,99.2236422 119.61278,99.3597444 C119.580511,99.4763578 119.549361,99.5894569 119.51885,99.6992013 C119.500958,99.7662939 119.484026,99.8292332 119.466613,99.8942492 L150.846645,99.8942492 C151.267252,99.8942492 151.617572,99.5642173 151.633546,99.1439297 C151.633706,99.1413738 151.633706,99.1389776 151.633866,99.1364217 C151.659904,98.5520767 151.686741,97.9520767 151.714217,97.3386581 C151.725879,96.7258786 151.7377,96.0996805 151.75,95.4629393 C151.767891,94.8268371 151.748562,94.1803514 151.746805,93.5266773 C151.743131,93.2 151.739776,92.8714058 151.736262,92.5410543 Z" id="Shape"></path>
                <path d="M143.576837,59.6052716 C143.997764,59.4357827 144.189776,58.9482428 143.995687,58.5381789 C143.909425,58.3559105 143.808626,58.1428115 143.694409,57.9017572 C143.586581,57.6752396 143.467412,57.4244409 143.338019,57.1514377 C143.170447,56.8100639 142.989297,56.4410543 142.795527,56.0466454 C142.600319,55.6538339 142.392812,55.2357827 142.173642,54.7952077 C142.06262,54.5661342 141.953514,54.3771565 141.839297,54.1621406 C141.725559,53.9519169 141.609105,53.736901 141.490096,53.5172524 C141.250958,53.0789137 141.00639,52.620607 140.74393,52.151278 C140.472843,51.6870607 140.192652,51.206869 139.904633,50.7132588 C139.760224,50.4670927 139.613738,50.2174121 139.465495,49.965016 C139.310383,49.7164537 139.153355,49.4648562 138.994728,49.2105431 C138.675719,48.7039936 138.349681,48.186262 138.018371,47.6600639 C137.319169,46.6297125 136.623163,45.5520767 135.846326,44.5033546 C135.655591,44.2392971 135.463738,43.9742812 135.271565,43.7084665 L134.982428,43.3100639 L134.68147,42.9182109 C134.278914,42.3969649 133.87476,41.8739617 133.470607,41.3507987 C133.059265,40.8337061 132.633706,40.327476 132.216613,39.8193291 C132.005751,39.5669329 131.801438,39.3108626 131.586262,39.0642173 C131.370447,38.8183706 131.155431,38.5731629 130.940895,38.3289137 C130.726358,38.085623 130.51278,37.8428115 130.30016,37.6014377 C130.088818,37.3591054 129.875719,37.1209265 129.655911,36.8905751 C129.220767,36.4271565 128.791054,35.9694888 128.368371,35.5191693 C127.945048,35.0702875 127.506709,34.6484026 127.089617,34.2266773 C126.669489,33.8071885 126.261182,33.3952077 125.844249,33.0126198 C125.431949,32.6266773 125.030671,32.251278 124.642812,31.8880192 C124.25655,31.5239617 123.862141,31.1932907 123.494728,30.8658147 C123.124281,30.541853 122.769169,30.2314696 122.43147,29.936262 C122.085144,29.6507987 121.75655,29.3801917 121.447923,29.1258786 C121.138978,28.872524 120.85,28.6354633 120.582748,28.4162939 C120.315016,28.1979233 120.058946,28.0086262 119.833227,27.8321086 C119.504473,27.5798722 119.226837,27.3667732 119.00623,27.1974441 C118.669968,26.9392971 118.190575,26.9944089 117.920288,27.3214058 L104.149681,43.9900958 C103.890096,44.3044728 103.9123,44.7638978 104.201917,45.0507987 C104.317093,45.1645367 104.45,45.2961661 104.599521,45.4442492 C104.742812,45.5881789 104.907029,45.7405751 105.075399,45.9185304 C105.24377,46.0963259 105.425559,46.2888179 105.619968,46.4942492 C105.814696,46.698722 106.021725,46.9162939 106.239776,47.1456869 C106.45016,47.3824281 106.671406,47.6317891 106.902236,47.8916933 C107.130192,48.1539936 107.379393,48.414377 107.616454,48.7047923 C107.855591,48.9923323 108.102716,49.2894569 108.357029,49.5950479 C108.615974,49.8950479 108.863099,50.2207668 109.11901,50.5498403 C109.372204,50.8811502 109.642812,51.2078275 109.897125,51.558147 C110.151597,51.9073482 110.410224,52.2623003 110.672045,52.6217252 C110.805591,52.7985623 110.932268,52.9830671 111.057029,53.1702875 C111.183227,53.35623 111.310064,53.5428115 111.43738,53.7303514 C111.564856,53.9169329 111.693131,54.1044728 111.821406,54.2926518 C111.949521,54.4808307 112.066933,54.6776358 112.190735,54.8701278 C112.433866,55.2586262 112.685942,55.6413738 112.92492,56.0325879 C113.157827,56.4276358 113.390895,56.8228435 113.622843,57.2162939 L113.796965,57.5099042 L113.960064,57.8097444 C114.06901,58.0087859 114.177476,58.207508 114.285623,58.4051118 C114.732109,59.1861022 115.108946,59.9913738 115.503355,60.7479233 C115.683866,61.1357827 115.861342,61.5169329 116.035144,61.8904153 C116.122045,62.0763578 116.207987,62.2603834 116.292971,62.4420128 C116.371725,62.6269968 116.449361,62.8095847 116.526038,62.9899361 C116.680192,63.348722 116.830032,63.6982428 116.97524,64.0357827 C117.109265,64.378115 117.238658,64.7087859 117.362939,65.0260383 C117.42524,65.1845048 117.485942,65.3396166 117.545367,65.4912141 C117.601597,65.6391374 117.671246,65.7992013 117.708626,65.9223642 C117.797284,66.1809904 117.88115,66.4265176 117.960064,66.6571885 C118.040575,66.886262 118.116134,67.1004792 118.185783,67.298722 C118.277316,67.5720447 118.361342,67.822524 118.43722,68.0490415 C118.521725,68.3020767 118.596166,68.5257188 118.660064,68.7174121 C118.803514,69.1476038 119.279872,69.3669329 119.700799,69.1979233 L143.576837,59.6052716 Z" id="Shape"></path>
                <path d="M73.4517572,29.8319489 C73.6603834,29.8603834 73.8910543,29.891853 74.142492,29.9261981 C74.3923323,29.9696486 74.6626198,30.0167732 74.951278,30.0670927 C75.2394569,30.1166134 75.5461661,30.1691693 75.8693291,30.2247604 C76.1501597,30.2714058 76.4410543,30.3391374 76.7434505,30.4023962 L85.4341853,12.6257188 C85.0033546,12.5584665 84.5760383,12.4916933 84.1573482,12.4263578 C83.8704473,12.3837061 83.5880192,12.3346645 83.3067093,12.2995208 C83.0253994,12.2654952 82.7474441,12.2317891 82.4731629,12.1985623 C81.9253994,12.1335463 81.3926518,12.0701278 80.877476,12.0089457 C80.3608626,11.9646965 79.8616613,11.921885 79.3825879,11.8808307 C78.9033546,11.8440895 78.4463259,11.7956869 78.0087859,11.7749201 C77.5720447,11.7535144 77.1576677,11.7330671 76.7683706,11.7138978 C76.379393,11.6955272 76.0154952,11.6784345 75.6792332,11.6624601 C75.3426518,11.6570288 75.0333866,11.6520767 74.7539936,11.6476038 C74.3610224,11.6428115 74.027476,11.6388179 73.7600639,11.635623 C73.3359425,11.6305112 72.984984,11.9619808 72.9646965,12.385623 L72.1722045,28.9314696 C72.1527157,29.3391374 72.4468051,29.6940895 72.8511182,29.7495208 C73.0233227,29.7731629 73.2241214,29.8007987 73.4517572,29.8319489 Z" id="Shape"></path>
                <path d="M96.8094249,38.9426518 C97.0429712,39.1124601 97.264377,39.2734824 97.4723642,39.4250799 C97.6806709,39.5742812 97.8757188,39.7138978 98.0560703,39.843131 C98.1341853,39.8968051 98.263099,39.9945687 98.3683706,40.0728435 C98.4768371,40.1538339 98.5801917,40.2309904 98.678115,40.3041534 C98.8920128,40.463738 99.0808307,40.6046326 99.242492,40.7252396 C99.6060703,40.9964856 100.122045,40.9047923 100.371086,40.5255591 L111.717732,23.241853 C111.966933,22.8626198 111.846006,22.3525559 111.452396,22.1268371 C111.277316,22.0265176 111.073003,21.9092652 110.841693,21.7765176 C110.735463,21.7154952 110.623642,21.6514377 110.50607,21.5840256 C110.378115,21.5116613 110.244409,21.4359425 110.104952,21.3570288 C109.782109,21.1790735 109.432907,20.986901 109.059904,20.7813099 C108.686741,20.5779553 108.289457,20.3616613 107.870927,20.1333866 C107.472045,19.9335463 107.052875,19.7234824 106.615335,19.5041534 C106.176038,19.2897764 105.727796,19.051278 105.247125,18.8348243 C104.76869,18.615655 104.274121,18.3889776 103.765815,18.1559105 C103.260863,17.9175719 102.727955,17.7011182 102.187061,17.4739617 C101.64393,17.2515974 101.097444,17.0084665 100.526677,16.7939297 C100.382109,16.7391374 100.235304,16.6837061 100.089617,16.6284345 L95.1947284,37.8741214 C95.4653355,38.0440895 95.7202875,38.2242812 95.9714058,38.386901 C96.263738,38.5806709 96.5432907,38.7661342 96.8094249,38.9426518 Z" id="Shape"></path>
                <path d="M58.2162939,29.7453674 C58.4354633,29.7164537 58.650639,29.6806709 58.8654952,29.6579872 C59.0803514,29.636262 59.2926518,29.6146965 59.5019169,29.5932907 C59.9196486,29.55 60.3258786,29.5078275 60.7190096,29.4669329 C61.1132588,29.4405751 61.4942492,29.415016 61.8599042,29.3904153 C62.0423323,29.3779553 62.2209265,29.3658147 62.3955272,29.3538339 C62.5696486,29.3421725 62.7440895,29.3273163 62.8936102,29.3271565 C63.2017572,29.3190096 63.4942492,29.3115016 63.7688498,29.3043131 C64.0426518,29.2956869 64.2985623,29.2875399 64.535623,29.2800319 C64.8277955,29.278115 65.0961661,29.2763578 65.3383387,29.2747604 C65.6051118,29.2733227 65.8408946,29.2720447 66.042492,29.2709265 C66.4961661,29.2685304 66.8527157,28.884345 66.8230032,28.4316294 L65.8015974,12.8453674 C65.7717252,12.3926518 65.3682109,12.0583067 64.9182109,12.1151757 C64.7180511,12.1404153 64.484345,12.1699681 64.2196486,12.2033546 C63.9742812,12.2345048 63.7025559,12.2691693 63.4067093,12.306869 C63.0571885,12.3587859 62.6792332,12.4146965 62.2752396,12.4746006 C61.872524,12.5359425 61.44377,12.601278 60.991853,12.6701278 C60.7605431,12.7027157 60.5476038,12.7460064 60.3241214,12.7881789 C60.101278,12.8306709 59.8733227,12.8742812 59.6405751,12.9186901 C59.1758786,13.0084665 58.6920128,13.1020767 58.1907348,13.1988818 C57.6934505,13.3121406 57.1790735,13.429393 56.6504792,13.5496805 C56.3867412,13.6102236 56.1193291,13.6717252 55.848722,13.7340256 C55.5784345,13.7972843 55.3073482,13.8746006 55.0324281,13.9456869 C54.4837061,14.091853 53.9234824,14.2412141 53.3535144,14.3929712 C52.7892971,14.563099 52.215655,14.7359425 51.6351438,14.9110224 C51.3456869,15.000639 51.0531949,15.0851438 50.7624601,15.1808307 C50.4730032,15.2797125 50.1814696,15.3789137 49.8891374,15.478754 C49.5972843,15.578754 49.3043131,15.6790735 49.0105431,15.7798722 C48.7166134,15.8798722 48.4222045,15.9803514 48.1317891,16.0948882 C47.5495208,16.3170927 46.965016,16.5402556 46.3805112,16.7634185 C45.7985623,16.9912141 45.2261981,17.2436102 44.6525559,17.4824281 C44.3666134,17.6043131 44.0798722,17.721885 43.7972843,17.8469649 C43.5166134,17.9765176 43.236901,18.1055911 42.958147,18.234345 C42.6800319,18.363099 42.4028754,18.4915335 42.1273163,18.6191693 C41.8517572,18.7466454 41.5773163,18.8722045 41.3105431,19.0107029 C40.7750799,19.2809904 40.2461661,19.5480831 39.7260383,19.8107029 C39.2057508,20.0715655 38.7099042,20.3594249 38.2174121,20.6244409 C37.7271565,20.8944089 37.2450479,21.1519169 36.7902556,21.429393 C36.3329073,21.700639 35.8880192,21.9646965 35.4576677,22.2199681 C35.0260383,22.4717252 34.6257188,22.7436102 34.2333866,22.9892971 C33.84377,23.2389776 33.4704473,23.4784345 33.1153355,23.7060703 C32.7678914,23.9445687 32.4381789,24.1707668 32.1284345,24.3833866 C31.8194888,24.5961661 31.5303514,24.7952077 31.2629393,24.979393 C30.9958466,25.1635783 30.7595847,25.3461661 30.541853,25.5039936 C30.2468051,25.721885 29.9948882,25.9078275 29.7910543,26.0583067 C29.450639,26.3095847 29.3707668,26.7841853 29.6087859,27.1341853 L36.0808307,36.6495208 C36.3111821,36.9881789 36.7615016,37.0944089 37.1182109,36.8929712 C37.2825879,36.8003195 37.4768371,36.6905751 37.6984026,36.565655 C37.8915335,36.4587859 38.1004792,36.3325879 38.3364217,36.2097444 C38.5722045,36.0867412 38.8271565,35.9541534 39.0995208,35.8123003 C39.3710863,35.6702875 39.6602236,35.5191693 39.9648562,35.3599042 C40.2747604,35.2113419 40.6004792,35.0551118 40.9404153,34.8921725 C41.2819489,34.7330671 41.6284345,34.5507987 42.0020767,34.391853 C42.3728435,34.2290735 42.75623,34.0608626 43.1504792,33.8878594 C43.5407348,33.708147 43.9541534,33.5511182 44.3723642,33.3833866 C44.7928115,33.2204473 45.2138978,33.0361022 45.6549521,32.8803514 C46.0940895,32.7220447 46.5407348,32.5611821 46.9926518,32.3982428 C47.2167732,32.313099 47.4474441,32.2410543 47.6785942,32.1672524 C47.9092652,32.0929712 48.1412141,32.0183706 48.3739617,31.9434505 C48.60623,31.8683706 48.8394569,31.7929712 49.0733227,31.7172524 C49.3084665,31.6458466 49.5469649,31.5819489 49.7838658,31.5135783 C50.2597444,31.3819489 50.7324281,31.2359425 51.2116613,31.1135783 C51.6912141,30.9948882 52.1707668,30.8761981 52.6484026,30.758147 C52.8854633,30.6950479 53.1260383,30.6456869 53.3654952,30.5963259 C53.6044728,30.5460064 53.8428115,30.4958466 54.0803514,30.4458466 C54.3170927,30.3955272 54.5530351,30.3455272 54.7878594,30.2956869 C55.0231629,30.248722 55.2597444,30.2124601 55.493131,30.1704473 C55.9599042,30.0894569 56.4209265,30.0092652 56.8746006,29.9306709 C57.3298722,29.8678914 57.7776358,29.8059105 58.2162939,29.7453674 Z" id="Shape"></path>
                <path d="M14.0854633,42.0479233 C13.9158147,42.2878594 13.7455272,42.5289137 13.5744409,42.7709265 C13.4038339,43.0127796 13.2325879,43.2555911 13.0607029,43.4992013 C12.8896166,43.743131 12.7295527,43.9961661 12.563099,44.2450479 C12.234984,44.7461661 11.8992013,45.2434505 11.5777955,45.7501597 C11.2638978,46.2611821 10.95,46.7722045 10.6373802,47.2813099 L10.4041534,47.6624601 L10.1827476,48.0498403 C10.035623,48.3073482 9.88897764,48.564377 9.7428115,48.8201278 C9.14536741,49.834984 8.62635783,50.8723642 8.09888179,51.8576677 C7.85335463,52.3600639 7.61182109,52.8541534 7.37539936,53.3378594 C7.25814696,53.579393 7.14201278,53.8186901 7.02747604,54.0547923 C6.91964856,54.2940895 6.81325879,54.5306709 6.70814696,54.7642173 C6.49888179,55.2303514 6.29536741,55.6840256 6.09840256,56.1226837 C5.91469649,56.5669329 5.7370607,56.9960064 5.56661342,57.4078275 C5.39952077,57.8209265 5.23067093,58.2118211 5.08674121,58.5912141 C4.94472843,58.9709265 4.80990415,59.3313099 4.68306709,59.6698083 C4.55686901,60.0079872 4.43881789,60.3244409 4.32971246,60.6170927 C4.22891374,60.9126198 4.13642173,61.1840256 4.05271565,61.4292332 C3.94408946,61.7515974 3.85079872,62.0282748 3.77460064,62.2547923 C3.63961661,62.6551118 3.84488818,63.0894569 4.23945687,63.2407348 L10.2634185,65.5501597 C10.6468051,65.6971246 11.0785942,65.5255591 11.2557508,65.1551118 C11.3436102,64.9717252 11.4485623,64.7520767 11.5691693,64.4998403 C11.6691693,64.2920128 11.7797125,64.0618211 11.9003195,63.8111821 C12.0284345,63.5640575 12.1669329,63.2972843 12.315016,63.0118211 C12.4626198,62.7273163 12.6194888,62.4239617 12.784984,62.1044728 C12.9517572,61.7859425 13.14377,61.4592652 13.334345,61.1142173 C13.5273163,60.7710863 13.7284345,60.4134185 13.9365815,60.043131 C14.1559105,59.6800319 14.3825879,59.3043131 14.6158147,58.9180511 C14.7319489,58.7252396 14.8496805,58.5298722 14.9688498,58.3321086 C15.0942492,58.1380192 15.221246,57.941853 15.3495208,57.7429712 C15.6060703,57.3468051 15.8682109,56.9423323 16.1348243,56.5305112 C16.701278,55.7285942 17.2552716,54.8840256 17.8813099,54.0694888 C18.0341853,53.8635783 18.1876997,53.6570288 18.3416933,53.4498403 L18.572524,53.1388179 L18.814377,52.8346645 C19.1364217,52.4290735 19.4597444,52.0222045 19.7830671,51.6153355 C20.1123003,51.2134185 20.4539936,50.821885 20.7861022,50.4269968 C20.9544728,50.2309904 21.1161342,50.0309904 21.2884984,49.8404153 C21.4610224,49.6501597 21.6329073,49.4603834 21.8041534,49.2714058 C21.9750799,49.0825879 22.1452077,48.8945687 22.3145367,48.7073482 C22.4822684,48.5191693 22.6515974,48.334345 22.827476,48.1571885 C23.1734824,47.7988818 23.5153355,47.4448882 23.8515974,47.0964856 C24.1872204,46.748722 24.5375399,46.4260383 24.8682109,46.0998403 C25.2014377,45.7760383 25.5238019,45.4565495 25.8557508,45.163738 C26.1822684,44.8666134 26.4998403,44.5776358 26.8071885,44.2979233 C27.1119808,44.0166134 27.4260383,43.7654952 27.7161342,43.5134185 C28.008147,43.2646965 28.2880192,43.0263578 28.5541534,42.7996805 C28.8154952,42.5928115 29.0634185,42.3966454 29.2963259,42.2119808 C29.5279553,42.0276358 29.7447284,41.8549521 29.9452077,41.6952077 C30.0372204,41.6191693 30.1618211,41.528115 30.2670927,41.4480831 C30.3750799,41.3664537 30.478115,41.2888179 30.5758786,41.2151757 C30.7888179,41.0543131 30.9768371,40.9124601 31.1378594,40.7910543 C31.5,40.5177316 31.5560703,39.9966454 31.2615016,39.6515974 L24.4028754,31.6166134 C24.1083067,31.2715655 23.5848243,31.2452077 23.258147,31.5599042 C23.1129393,31.6998403 22.943131,31.8632588 22.7511182,32.0484026 C22.6629393,32.1332268 22.5699681,32.2228435 22.472524,32.3166134 C22.3733227,32.4129393 22.2789137,32.500639 22.1559105,32.6263578 C21.9207668,32.8635783 21.6666134,33.1202875 21.3948882,33.3944089 C21.1246006,33.6686901 20.836901,33.9605431 20.5335463,34.2682109 C20.2515974,34.5736422 19.9551118,34.8947284 19.6458466,35.2297125 C19.3404153,35.5672524 19.0110224,35.9073482 18.6923323,36.2801917 C18.3723642,36.6511182 18.0416933,37.0346645 17.7015974,37.428754 C17.3573482,37.8182109 17.0242812,38.2365815 16.6816294,38.6610224 C16.3415335,39.0876997 15.9830671,39.5134185 15.6410543,39.9645367 C15.3,40.415655 14.9533546,40.8742812 14.6025559,41.3388179 C14.4242812,41.5690096 14.2538339,41.8067093 14.0854633,42.0479233 Z" id="Shape"></path>
                <path d="M1.62220447,70.2191693 C1.58210863,70.4166134 1.53514377,70.6479233 1.48194888,70.9092652 C1.43322684,71.1492013 1.37923323,71.415016 1.32044728,71.7043131 C1.26277955,72.0001597 1.20638978,72.3495208 1.14345048,72.7060703 C1.08146965,73.0661342 1.01565495,73.4492013 0.946325879,73.8530351 C0.912779553,74.0543131 0.874440895,74.2623003 0.842651757,74.4720447 C0.814376997,74.6805112 0.785623003,74.8936102 0.756070288,75.1110224 C0.643610224,75.9821086 0.495527157,76.9193291 0.410223642,77.920607 C0.360702875,78.4194888 0.309904153,78.9317891 0.25798722,79.4555911 C0.215175719,79.9800319 0.18658147,80.5170927 0.149680511,81.0615016 C0.0634185304,82.1495208 0.0476038339,83.2779553 0.0116613419,84.4194888 L0,84.8485623 L0.00207667732,85.279393 C0.00367412141,85.5670927 0.0052715655,85.8552716 0.00686900958,86.1442492 C0.00862619808,86.4329073 0.0103833866,86.7220447 0.0119808307,87.0113419 L0.0146964856,87.4453674 L0.0313099042,87.8797125 C0.0547923323,88.457508 0.0782747604,89.035623 0.101757188,89.6113419 L0.119488818,90.041853 L0.124920128,90.1813099 L0.132587859,90.2851438 L0.147923323,90.4926518 C0.168370607,90.7693291 0.188658147,91.0452077 0.208945687,91.3201278 C0.229233227,91.5950479 0.249520767,91.8686901 0.269488818,92.1410543 C0.297124601,92.4249201 0.324440895,92.7079872 0.351916933,92.9891374 C0.379552716,93.2699681 0.407028754,93.5488818 0.434345048,93.8261981 C0.448083067,93.964377 0.461821086,94.1023962 0.475559105,94.2396166 C0.492651757,94.3747604 0.509744409,94.5094249 0.526677316,94.6436102 C0.594728435,95.178754 0.661661342,95.7051118 0.72715655,96.2204473 C0.806230032,96.7333866 0.883546326,97.2354633 0.958626198,97.7239617 C1.02891374,98.2123003 1.11948882,98.6846645 1.20271565,99.1413738 C1.20958466,99.1779553 1.21645367,99.2140575 1.22316294,99.2503195 C1.29265176,99.6238019 1.61757188,99.8942492 1.99728435,99.8942492 L4.12044728,99.8942492 C4.57380192,99.8942492 4.93354633,99.5126198 4.90686901,99.0602236 C4.89968051,98.9394569 4.89233227,98.8174121 4.8841853,98.6942492 C4.85766773,98.2539936 4.82571885,97.8 4.81549521,97.3314696 C4.80015974,96.863738 4.78450479,96.3832268 4.76837061,95.8921725 C4.76533546,95.4014377 4.76230032,94.9 4.75926518,94.3899361 C4.75846645,94.2626198 4.75766773,94.1346645 4.75686901,94.0065495 C4.75958466,93.8801917 4.76246006,93.7531949 4.76533546,93.6255591 C4.77092652,93.371246 4.77651757,93.1148562 4.78226837,92.856869 C4.78785942,92.5995208 4.79361022,92.3402556 4.79936102,92.0797125 C4.81214058,91.8070288 4.82476038,91.5327476 4.83769968,91.2576677 C4.85047923,90.9824281 4.86341853,90.7060703 4.87619808,90.4289137 L4.88594249,90.2207668 L4.89073482,90.1166134 L4.8913738,90.1035144 C4.8913738,90.0704473 4.89201278,90.1340256 4.89233227,90.1231629 L4.8942492,90.0979233 L4.89824281,90.0477636 L4.93051118,89.6447284 C4.97332268,89.1071885 5.01629393,88.5680511 5.05942492,88.0285942 L5.09233227,87.6249201 L5.13881789,87.2222045 C5.16980831,86.9541534 5.20063898,86.6864217 5.23146965,86.4191693 C5.26214058,86.1520767 5.2928115,85.885623 5.32332268,85.6201278 L5.36884984,85.2226837 L5.42779553,84.8279553 C5.58945687,83.7784345 5.72683706,82.7460064 5.92811502,81.757508 C6.02252396,81.2623003 6.10702875,80.7750799 6.20399361,80.3007987 C6.30958466,79.8284345 6.41277955,79.3662939 6.51325879,78.9164537 C6.69920128,78.0153355 6.94025559,77.1776358 7.13642173,76.4011182 C7.18674121,76.2073482 7.23594249,76.0174121 7.28402556,75.8321086 C7.33482428,75.6495208 7.38961661,75.4766773 7.44009585,75.3054313 C7.54185304,74.9646965 7.6384984,74.6415335 7.72923323,74.3375399 C7.82204473,74.0311502 7.89824281,73.7571885 7.9870607,73.4822684 C8.08019169,73.2017572 8.16549521,72.9447284 8.2428115,72.7123003 C8.32683706,72.4589457 8.40111821,72.2353035 8.46469649,72.0436102 C8.60766773,71.6134185 8.35798722,71.1522364 7.91964856,71.0354633 L2.5971246,69.6161342 C2.1586262,69.4990415 1.71261981,69.7746006 1.62220447,70.2191693 Z" id="Shape"></path>
                <path d="M61.8717252,97.8067093 C63.6033546,98.6531949 65.4376997,99.0544728 67.2436102,99.0544728 C71.7768371,99.0544728 76.1333866,96.528754 78.2584665,92.1817891 C78.6677316,91.3450479 78.9845048,90.421246 79.1905751,89.551278 L91.5830671,35.7626198 L96.3025559,15.278115 L99.2263578,2.5884984 C99.5666134,1.11166134 98.391853,0.105591054 97.2132588,0.105591054 C96.5233227,0.105591054 95.8319489,0.450479233 95.4421725,1.24744409 L89.492492,13.4172524 L80.7154952,31.3702875 L56.2466454,81.4199681 C53.2749201,87.4984026 55.7934505,94.8351438 61.8717252,97.8067093 Z M67.6979233,80.484984 C71.0140575,80.484984 73.7023962,83.1731629 73.7023962,86.4894569 C73.7023962,89.8054313 71.0140575,92.4939297 67.6979233,92.4939297 C64.3817891,92.4939297 61.6934505,89.8054313 61.6934505,86.4894569 C61.6934505,83.1728435 64.3817891,80.484984 67.6979233,80.484984 Z" id="Shape"></path>
            </g>
        </g>
    </g>
</svg>